<?xml version="1.0" encoding="UTF-8"?>
<svg id="logo" xmlns="http://www.w3.org/2000/svg" width="200" height="70" version="1.1" viewBox="0 0 200 70">
  <defs>
    <style>
      .cls-1 {
        fill: #ff3233;
      }

      .cls-1, .cls-2 {
        stroke-width: 0px;
      }

      .cls-2 {
        fill: #81b725;
      }
    </style>
  </defs>
  <path class="cls-1" d="M184,24c-4.2,0-6.8,1.5-8.6,5.5h0v-4.9h-12.1v37.6h13v-14.3h.1c2,2.8,4.6,4.1,8.1,4.1,8.1,0,11.4-6.3,11.4-13.6s-3.1-14.5-11.8-14.5ZM179.1,44.1c-2.9,0-3.3-2.8-3.3-5.9s.4-5.5,3.2-5.5,3.3,3,3.3,5.8-.5,5.6-3.2,5.6Z"/>
  <path class="cls-1" d="M100.7,37.6c0,9.3,5.8,14.5,16.7,14.5s16.7-5.2,16.7-14.5-5.9-13.6-16.7-13.6-16.7,4.5-16.7,13.6M114.5,37.6c0-3.2.3-5.8,2.8-5.8s2.9,2.6,2.9,5.8-.3,6.8-2.9,6.8-2.8-2.9-2.8-6.8"/>
  <path class="cls-1" d="M99.1,42.8c-1.8,1.1-3.7,1.6-6,1.6-3.9,0-6.5-2.4-6.5-6.6s2.6-6,6.5-6,4.2.6,5.8,1.3v-7.9c-2.7-.8-5.5-1.2-9.4-1.2-10.9,0-16.6,4.5-16.6,13.5s5.8,14.5,16.6,14.5,6.8-.4,9.6-1.4v-8Z"/>
  <g>
    <rect class="cls-1" x="56.9" y="24.7" width="13" height="26.8"/>
    <rect class="cls-1" x="56.9" y="12.9" width="13" height="8.9"/>
  </g>
  <rect class="cls-1" x="39.2" y="12.9" width="13" height="38.6"/>
  <path class="cls-2" d="M23.8,21.9l10.9,2.2s.8-10.6-11-14.2l-11-2.2s0,12.6,11,14.2"/>
  <path class="cls-1" d="M18.6,24c-5,0-7.4.5-11.2,1.6v7.5c2.6-1.3,5.9-2.3,9-2.3s6.8.4,6.8,3.9c-1.1,0-3.2-.4-5-.4-6.5,0-13.9,1.6-13.9,9.9s4.9,7.9,9.8,7.9,7-1.4,8.8-4.5h0v3.8h12.1v-16.3c0-9.8-9-11.1-16.5-11.1ZM23.1,40.5c0,.2,0,.4,0,.6-.2,2.1-1.5,4.1-4,4.1s-3.1-.7-3.1-2.5c0-2.8,3.1-3.1,5.8-3.1h1.3v.8Z"/>
  <path class="cls-1" d="M157.7,24c-4.1,0-6.6,2.9-8.2,6.7h-.1v-6.1h-12.2v26.8h13v-9.7c0-4,3-7.1,6.6-7.1s2.3.2,2.9.4v-10.8c-.5-.2-1.3-.3-2.1-.3Z"/>
</svg>